<?xml version="1.0" encoding="UTF-8" standalone="no"?>
<!DOCTYPE svg PUBLIC "-//W3C//DTD SVG 1.1//EN" "http://www.w3.org/Graphics/SVG/1.1/DTD/svg11.dtd">
<svg width="100%" height="100%" viewBox="0 0 100 64" version="1.1" xmlns="http://www.w3.org/2000/svg" xmlns:xlink="http://www.w3.org/1999/xlink" xml:space="preserve" xmlns:serif="http://www.serif.com/" style="fill-rule:evenodd;clip-rule:evenodd;stroke-linejoin:round;stroke-miterlimit:2;">
    <path d="M87.121,34.489C87.074,33.893 86.963,33.307 86.806,32.731C86.395,31.22 85.673,29.771 85.015,28.351C84.501,27.243 83.969,26.172 83.387,25.13C82.802,24.084 82.167,23.069 81.446,22.075C80.332,20.538 79.086,19.112 77.706,17.832C76.325,16.552 74.81,15.419 73.156,14.468C71.133,13.305 68.96,12.529 66.719,12.01C64.488,11.494 62.19,11.231 59.907,11.089C55.585,10.822 51.158,11.21 46.826,12.099C45.976,12.273 45.129,12.467 44.286,12.68C39.681,12.97 35.056,13.961 30.764,15.718C26.195,17.588 22.003,20.325 18.615,24.012C16.085,26.76 13.836,30.093 13.369,33.537C13.055,35.857 13.538,38.23 15.292,40.52C15.376,40.631 15.462,40.741 15.549,40.85C15.987,42.124 16.562,43.359 17.138,44.533C18.027,46.346 18.985,48.247 20.2,49.931C21.017,51.064 21.951,52.099 23.058,52.944C24.148,53.778 25.427,54.366 26.78,54.791C28.78,55.419 30.943,55.689 32.899,55.857C36.65,56.183 40.421,56.014 44.174,55.553C49.777,54.864 55.342,53.523 60.745,52.198C62.444,51.782 64.135,51.32 65.812,50.816C67.49,50.311 69.154,49.762 70.802,49.174C73.241,48.3 75.714,47.086 78.006,45.602C79.915,44.365 81.699,42.941 83.239,41.379C84.043,40.794 84.817,40.147 85.457,39.416C86.179,38.592 86.733,37.661 86.985,36.593C87.067,36.446 87.146,36.298 87.222,36.149C87.749,35.112 88.136,34 88.319,32.775C88.495,31.604 88.498,30.426 88.396,29.253C88.244,27.522 87.862,25.8 87.469,24.123C87.22,23.057 86.922,21.993 86.554,20.956C86.183,19.913 85.739,18.896 85.202,17.931C84.156,16.053 82.776,14.407 81.184,12.982C79.604,11.568 77.815,10.373 75.943,9.388C71.513,7.06 66.75,5.893 61.885,5.566C57.066,5.242 52.147,5.742 47.357,6.749C45.683,7.101 44.02,7.461 42.365,7.865C41.261,8.135 40.16,8.424 39.063,8.744C37.514,9.196 35.951,9.699 34.407,10.253C32.862,10.807 31.335,11.412 29.857,12.067C28.9,12.492 27.961,12.951 27.03,13.425C24.869,14.527 22.754,15.716 20.564,16.76C19.102,17.457 17.565,17.96 16.085,18.599C15.441,18.878 14.807,19.181 14.194,19.536C13.724,19.808 13.251,20.116 12.786,20.444C12.097,20.928 11.425,21.453 10.803,21.962C10.598,22.13 10.363,22.328 10.204,22.556C10.07,22.746 9.986,22.957 9.986,23.187C9.986,23.334 10.105,23.453 10.252,23.453C10.398,23.453 10.517,23.334 10.517,23.187C10.517,23.067 10.569,22.96 10.638,22.861C10.771,22.672 10.969,22.512 11.139,22.373C11.651,21.955 12.198,21.526 12.76,21.119C13.319,20.714 13.894,20.331 14.463,20.004C15.059,19.661 15.675,19.369 16.3,19.1C17.789,18.462 19.333,17.96 20.803,17.264C23.001,16.224 25.124,15.039 27.292,13.941C28.215,13.473 29.146,13.022 30.095,12.604C31.561,11.958 33.076,11.363 34.608,10.818C36.143,10.272 37.695,9.777 39.234,9.333C40.323,9.019 41.416,8.734 42.512,8.47C44.161,8.072 45.819,7.717 47.487,7.371C52.221,6.388 57.08,5.904 61.84,6.234C66.609,6.565 71.278,7.716 75.616,10.008C77.436,10.969 79.174,12.134 80.708,13.513C82.237,14.887 83.564,16.474 84.567,18.284C85.083,19.215 85.507,20.195 85.863,21.201C86.221,22.213 86.51,23.251 86.752,24.29C87.134,25.934 87.509,27.621 87.655,29.317C87.751,30.432 87.748,31.551 87.58,32.664C87.483,33.304 87.327,33.91 87.121,34.489ZM16.106,41.525C16.49,42.517 16.942,43.481 17.394,44.407C18.276,46.207 19.224,48.095 20.43,49.764C21.232,50.874 22.148,51.887 23.233,52.713C24.3,53.522 25.549,54.091 26.872,54.498C28.852,55.107 30.994,55.353 32.928,55.505C36.654,55.794 40.395,55.593 44.117,55.102C49.694,54.366 55.226,52.978 60.598,51.61C62.283,51.18 63.958,50.706 65.621,50.19C67.283,49.674 68.933,49.117 70.565,48.519C72.949,47.649 75.36,46.44 77.6,44.978C77.831,44.827 78.061,44.673 78.289,44.516C76.085,45.785 73.861,46.891 71.565,47.808C68.334,49.098 64.962,50.014 61.304,50.482C57.649,50.951 53.886,51.25 50.117,51.378C46.348,51.507 42.573,51.466 38.895,51.254C36.556,51.12 34.256,50.771 32.002,50.23C29.749,49.689 27.542,48.956 25.385,48.053C24.164,47.542 22.979,46.955 21.846,46.282C20.711,45.609 19.627,44.85 18.609,43.997C17.987,43.477 17.404,42.929 16.853,42.351C16.597,42.082 16.348,41.807 16.106,41.525ZM86.578,35.756C86.671,34.764 86.541,33.806 86.287,32.872C85.885,31.39 85.174,29.969 84.53,28.575C84.023,27.479 83.499,26.418 82.925,25.387C82.353,24.358 81.73,23.359 81.024,22.381C79.932,20.869 78.712,19.465 77.359,18.206C76.009,16.948 74.527,15.833 72.909,14.897C70.931,13.752 68.804,12.989 66.611,12.474C64.407,11.957 62.135,11.69 59.878,11.544C55.594,11.265 51.206,11.638 46.909,12.506C46.77,12.534 46.63,12.563 46.49,12.593C47.882,12.569 49.287,12.609 50.684,12.729C52.528,12.888 54.358,13.189 56.124,13.674C57.166,13.96 57.955,14.168 58.696,14.567C59.197,14.837 59.677,15.193 60.192,15.718C60.384,15.916 60.379,16.233 60.181,16.425C59.983,16.617 59.666,16.612 59.474,16.414C59.045,15.968 58.646,15.661 58.225,15.429C57.548,15.056 56.821,14.867 55.866,14.595C54.159,14.107 52.388,13.799 50.602,13.627C48.808,13.455 46.998,13.419 45.22,13.479C44.18,13.514 43.137,13.585 42.096,13.693C39.479,14.453 36.926,15.384 34.486,16.447C33.801,16.746 33.14,17.083 32.49,17.441C31.51,17.982 30.557,18.57 29.589,19.146C25.824,21.386 21.258,24.368 18.26,28.196C16.246,30.768 14.941,33.722 15.077,37.09C15.119,38.111 15.321,39.123 15.618,40.113L15.635,40.168L15.678,40.225C16.159,40.854 16.666,41.45 17.205,42.015C17.744,42.58 18.314,43.115 18.921,43.624C19.92,44.46 20.982,45.203 22.094,45.863C23.208,46.523 24.373,47.1 25.574,47.602C27.707,48.492 29.89,49.215 32.117,49.748C34.343,50.281 36.614,50.624 38.923,50.755C42.587,50.963 46.346,51.001 50.099,50.87C53.852,50.739 57.599,50.438 61.238,49.968C64.85,49.502 68.18,48.595 71.369,47.318C74.563,46.04 77.616,44.392 80.672,42.446C81.042,42.21 81.428,41.965 81.819,41.709C82.446,41.129 83.039,40.526 83.592,39.904C84.738,38.613 85.796,37.291 86.552,35.807L86.578,35.756ZM39.81,13.99C36.808,14.461 33.847,15.248 31.027,16.371C26.528,18.164 22.391,20.813 19.035,24.401C16.56,27.052 14.328,30.263 13.861,33.605C13.591,35.536 13.917,37.508 15.127,39.432C14.937,38.664 14.812,37.886 14.779,37.102C14.631,33.659 15.954,30.633 18.007,27.998C21.021,24.13 25.613,21.105 29.404,18.835C30.374,18.254 31.329,17.662 32.311,17.116C32.969,16.751 33.64,16.407 34.335,16.102C36.106,15.324 37.937,14.615 39.81,13.99Z" style="fill:#f03;"/>
</svg>
