<?xml version="1.0" encoding="UTF-8" standalone="no"?>
<!DOCTYPE svg PUBLIC "-//W3C//DTD SVG 1.1//EN" "http://www.w3.org/Graphics/SVG/1.1/DTD/svg11.dtd">
<svg width="100%" height="100%" viewBox="0 0 120 112" version="1.1" xmlns="http://www.w3.org/2000/svg" xmlns:xlink="http://www.w3.org/1999/xlink" xml:space="preserve" xmlns:serif="http://www.serif.com/" style="fill-rule:evenodd;clip-rule:evenodd;stroke-linejoin:round;stroke-miterlimit:2;">
    <path d="M49.577,10.792C47.697,10.897 45.819,11.064 43.964,11.316C39.685,11.899 35.534,12.937 31.777,14.715C27.248,16.857 23.651,19.665 20.665,22.969C16.141,27.977 13.024,34.125 10.198,40.822C8.797,44.142 6.743,47.478 5.506,50.984C4.96,52.529 4.572,54.106 4.463,55.73C4.359,57.267 4.402,58.785 4.518,60.297C4.692,62.553 5.031,64.793 5.286,67.058C5.626,70.076 5.904,73.067 6.325,76.043C6.606,78.031 6.949,80.012 7.421,81.99C8.398,86.09 10.377,90.281 13.16,93.944C15.841,97.476 19.268,100.518 23.261,102.518C27.888,104.837 31.817,106.208 35.276,106.991C40.301,108.128 44.333,108.025 48.067,107.772C51.282,107.554 55.466,107.126 59.258,106.45C62.092,105.946 64.709,105.302 66.549,104.508C67.695,104.013 68.991,103.331 70.36,102.542C70.522,102.527 70.684,102.51 70.845,102.493C72.181,102.352 73.526,102.165 74.873,101.954C77.999,101.463 81.134,100.838 84.179,100.334C85.708,100.081 87.466,99.635 89.184,99.072C90.909,98.508 92.593,97.825 93.961,97.105C96.635,95.697 98.164,95.031 99.497,94.219C100.559,93.572 101.5,92.834 102.781,91.567C103.913,90.449 105.028,89.413 105.927,88.057C106.7,86.891 107.314,85.492 107.642,83.611C107.677,83.409 107.542,83.217 107.34,83.182C107.138,83.147 106.946,83.282 106.91,83.484C106.604,85.245 106.031,86.555 105.309,87.648C104.441,88.961 103.359,89.963 102.266,91.048C101.039,92.266 100.139,92.979 99.12,93.603C97.799,94.411 96.282,95.075 93.63,96.478C92.295,97.185 90.651,97.854 88.966,98.409C87.285,98.964 85.563,99.405 84.066,99.656C81.024,100.167 77.892,100.798 74.769,101.295C73.757,101.456 72.746,101.603 71.74,101.727C75.663,99.36 79.955,96.376 82.932,94.565C83.131,94.444 83.325,94.322 83.514,94.2C84.779,93.655 86.01,93.104 87.195,92.558C90.651,90.966 94.461,88.888 97.715,86.299C99.923,84.543 101.875,82.551 103.291,80.319C105.828,76.32 106.983,71.808 107.391,67.128C107.996,60.193 106.957,52.89 106.37,46.366C106.223,44.738 106.196,43.11 106.174,41.484C106.457,40 106.71,38.512 106.879,37.028C107.105,35.051 107.182,33.081 106.988,31.137C106.839,29.644 106.477,28.189 106.016,26.757C105.335,24.641 104.439,22.576 103.714,20.512C103.059,18.649 102.375,16.603 101.304,14.849C100.572,13.65 99.659,12.588 98.46,11.804C95.391,9.8 91.996,8.698 88.462,8.1C83.24,7.218 77.717,7.44 72.522,7.445C69.58,7.447 66.676,7.674 63.792,8.051C59.471,8.616 55.197,9.516 50.918,10.493C50.473,10.595 50.025,10.694 49.577,10.792ZM40.609,12.726C37.643,13.319 34.778,14.185 32.114,15.432C26.514,18.053 22.36,21.717 19.026,26.086C15.668,30.485 13.139,35.596 10.801,41.077C9.591,43.914 7.899,46.759 6.656,49.716C5.832,51.675 5.206,53.682 5.058,55.771C4.952,57.279 4.991,58.769 5.101,60.253C5.267,62.502 5.599,64.737 5.846,66.996C6.177,70.009 6.442,72.996 6.857,75.968C7.132,77.94 7.473,79.905 7.94,81.867C8.899,85.899 10.845,90.021 13.581,93.625C16.214,97.092 19.578,100.08 23.499,102.043C28.08,104.337 31.97,105.694 35.394,106.468C40.359,107.589 44.342,107.482 48.03,107.231C51.229,107.013 55.39,106.585 59.162,105.911C61.948,105.413 64.521,104.783 66.33,104.001C67.161,103.642 68.072,103.183 69.032,102.655C67.932,102.736 66.828,102.788 65.724,102.824C61.755,102.95 57.765,102.853 53.813,103.082C49.974,103.305 46.016,103.755 42.14,103.563C39.521,103.434 36.939,103.012 34.456,102.038C30.291,100.404 27.11,98.015 24.599,95.096C20.779,90.656 18.512,84.986 16.687,78.884C15.944,76.403 15.041,73.981 14.268,71.515C13.935,70.453 13.626,69.383 13.364,68.297C13.184,67.551 13.065,66.801 12.978,66.048C12.779,64.312 12.755,62.561 12.554,60.815C12.104,56.909 12.018,53.087 12.367,49.303C12.715,45.526 13.497,41.787 14.784,38.045C15.384,36.298 16.129,34.628 16.998,33.025C17.867,31.423 18.859,29.888 19.956,28.41C21.982,25.679 24.065,22.893 26.489,20.481C28.117,18.862 29.898,17.411 31.918,16.257C34.63,14.708 37.558,13.566 40.609,12.726ZM40.571,13.273C37.624,14.098 34.798,15.209 32.175,16.708C30.196,17.839 28.451,19.262 26.856,20.85C24.45,23.244 22.385,26.011 20.375,28.72C19.293,30.179 18.313,31.693 17.457,33.274C16.602,34.851 15.869,36.495 15.277,38.215C14.005,41.917 13.232,45.615 12.888,49.351C12.543,53.099 12.63,56.886 13.077,60.754C13.278,62.5 13.302,64.251 13.502,65.988C13.587,66.72 13.703,67.448 13.878,68.173C14.137,69.248 14.443,70.306 14.773,71.357C15.548,73.825 16.454,76.248 17.2,78.73C18.701,83.716 20.495,88.413 23.213,92.366C25.912,96.29 29.524,99.48 34.671,101.489C37.095,102.435 39.614,102.839 42.169,102.96C46.024,103.144 49.959,102.687 53.776,102.459C57.733,102.222 61.729,102.311 65.702,102.177C67.273,102.124 68.84,102.036 70.401,101.878C70.716,101.694 71.035,101.505 71.357,101.311C74.417,99.467 77.71,97.238 80.434,95.478C77.803,96.527 75.068,97.503 72.32,98.295C68.792,99.311 65.242,100.026 61.858,100.206C55.616,100.541 48.944,99.391 42.726,97.056C36.5,94.718 30.727,91.192 26.301,86.768C24.982,85.452 23.645,84.161 22.459,82.745C21.664,81.798 20.937,80.794 20.327,79.69C19.076,77.428 18.328,75.178 17.889,72.892C17.227,69.435 17.275,65.892 17.368,62.089C17.436,59.332 17.35,56.539 17.433,53.765C17.468,52.569 17.535,51.377 17.658,50.192C17.853,48.32 18.168,46.455 18.553,44.6C19.128,41.828 19.857,39.079 20.568,36.365C21.066,34.464 21.61,32.606 22.344,30.818C22.833,29.626 23.407,28.464 24.107,27.341C25.991,24.32 28.53,21.425 31.429,18.958C34.229,16.575 37.365,14.591 40.571,13.273ZM105.715,40.729C105.696,39.581 105.67,38.434 105.598,37.288C105.517,36.005 105.376,34.723 105.119,33.443C104.68,31.256 103.769,28.762 102.57,26.417C101.374,24.08 99.893,21.89 98.302,20.302C97.515,19.515 96.643,18.838 95.723,18.229C94.331,17.307 92.829,16.542 91.34,15.799C88.978,14.62 86.517,13.482 83.982,12.611C82.294,12.032 80.574,11.571 78.826,11.298C77.27,11.055 75.697,10.943 74.117,10.896C71.738,10.824 69.347,10.899 66.984,10.899C66.124,10.9 65.252,10.9 64.372,10.902C66.369,11.113 69.703,11.612 72.786,12.515C75.243,13.235 77.538,14.219 78.915,15.496C79.117,15.684 79.129,16 78.941,16.202C78.753,16.404 78.436,16.416 78.234,16.228C76.953,15.03 74.802,14.128 72.511,13.447C68.496,12.251 64.041,11.755 62.84,11.711C58.163,11.539 53.123,11.402 48.138,11.751C47.579,11.827 47.022,11.909 46.466,11.998C45.977,12.112 45.488,12.23 45.001,12.355C43.677,12.696 42.369,13.09 41.097,13.589C37.815,14.878 34.595,16.884 31.73,19.312C28.861,21.742 26.347,24.594 24.48,27.574C23.79,28.674 23.225,29.813 22.742,30.982C22.011,32.751 21.469,34.589 20.971,36.472C20.256,39.177 19.522,41.917 18.943,44.682C18.557,46.522 18.239,48.374 18.041,50.233C17.916,51.407 17.848,52.59 17.81,53.777C17.721,56.55 17.801,59.342 17.727,62.098C17.626,65.876 17.567,69.394 18.218,72.83C18.645,75.084 19.379,77.303 20.608,79.535C21.207,80.622 21.92,81.61 22.7,82.544C23.878,83.955 25.206,85.241 26.515,86.553C30.911,90.951 36.642,94.461 42.829,96.783C49.007,99.102 55.639,100.236 61.841,99.897C65.203,99.714 68.728,98.999 72.23,97.984C75.575,97.015 78.9,95.772 82.041,94.455C82.246,94.327 82.446,94.204 82.64,94.086C85.248,92.497 86.896,90.813 88.216,88.978C90.27,86.122 91.54,82.908 94.343,79.14C95.861,77.099 97.363,75.079 98.691,72.947C99.57,71.534 100.373,70.072 101.053,68.522C101.658,67.143 102.095,65.758 102.419,64.365C102.753,62.928 102.969,61.482 103.126,60.025C103.366,57.803 103.471,55.557 103.656,53.279C103.733,52.318 103.825,51.351 103.946,50.377C104.339,47.229 105.119,43.985 105.715,40.729ZM105.769,43.532C105.297,45.867 104.814,48.183 104.53,50.45C104.409,51.415 104.318,52.373 104.24,53.326C104.054,55.61 103.947,57.861 103.706,60.088C103.545,61.568 103.325,63.037 102.984,64.497C102.651,65.924 102.203,67.342 101.583,68.754C100.891,70.33 100.074,71.816 99.179,73.251C97.842,75.396 96.33,77.428 94.802,79.481C91.999,83.245 90.729,86.455 88.675,89.309C87.684,90.685 86.514,91.979 84.912,93.212C85.638,92.889 86.351,92.564 87.049,92.242C90.478,90.655 94.259,88.587 97.486,86.011C99.657,84.278 101.578,82.316 102.97,80.115C105.466,76.166 106.595,71.711 106.989,67.094C107.58,60.181 106.529,52.906 105.932,46.406C105.844,45.448 105.798,44.49 105.769,43.532ZM106.107,38.368C106.175,37.899 106.237,37.429 106.29,36.961C106.511,35.026 106.587,33.098 106.397,31.196C106.252,29.745 105.897,28.331 105.449,26.939C104.769,24.829 103.875,22.768 103.151,20.71C102.51,18.884 101.845,16.877 100.796,15.159C100.11,14.036 99.259,13.036 98.135,12.301C95.137,10.339 91.817,9.264 88.365,8.676C83.175,7.792 77.685,8.006 72.522,8.001C69.604,7.999 66.723,8.22 63.862,8.588C60.033,9.081 56.241,9.837 52.45,10.677C53.085,10.661 53.72,10.65 54.353,10.645C58.656,10.386 62.941,10.386 66.984,10.386C69.352,10.387 71.749,10.312 74.133,10.384C75.733,10.432 77.328,10.547 78.905,10.793C80.682,11.071 82.432,11.539 84.147,12.13C86.703,13.01 89.182,14.162 91.562,15.354C93.068,16.109 94.587,16.886 95.994,17.821C96.94,18.449 97.836,19.148 98.645,19.959C100.265,21.581 101.776,23.816 102.991,26.202C104.208,28.589 105.129,31.127 105.572,33.353C105.831,34.653 105.972,35.956 106.052,37.26C106.075,37.629 106.093,37.999 106.107,38.368Z"/>
</svg>
